#!OML:ASF F:\VICON\USERDATA\INSTALL\rory3\rory3.ASF
:FULLY-SPECIFIED
:DEGREES
131
root 6.08119 17.7544 -2.58991 -7.1374 -46.79 9.89984
lowerback 11.4162 -0.487222 -6.94726
upperback 1.13856 -1.5464 0.0464867
thorax -5.02777 -0.629733 4.20828
lowerneck -22.1852 -4.07266 -10.3821
upperneck 25.6175 -4.39932 7.40471
head 12.6139 -2.03636 3.82421
rclavicle -7.31528e-014 2.46493e-014
rhumerus -38.6222 -17.1458 -75.7652
rradius 30.7987
rwrist 9.85173
rhand -12.7133 9.41012
rfingers 7.12502
rthumb 13.3695 -20.1409
lclavicle -7.31528e-014 2.46493e-014
lhumerus -32.7128 5.39981 80.1373
lradius 42.876
lwrist -5.19692
lhand -17.3229 25.2526
lfingers 7.12502
lthumb 8.92375 55.0439
rfemur -29.6394 0.949294 15.0617
rtibia 23.792
rfoot -10.5638 -1.76215
rtoes -0.330095
lfemur 18.7102 -4.2324 -32.5868
ltibia 1.27222e-014
lfoot -4.24243 -6.36596
ltoes -2.93039
132
root 5.96809 17.743 -2.49578 -7.24836 -47.0229 9.94785
lowerback 11.4026 -0.40013 -6.93839
upperback 1.16598 -1.42744 0.055934
thorax -5.0057 -0.572957 4.19479
lowerneck -22.2356 -4.0978 -10.3838
upperneck 25.6291 -4.41524 7.35895
head 12.6295 -2.04863 3.80388
rclavicle 3.63776e-014 -2.18663e-014
rhumerus -38.7505 -17.134 -75.7044
rradius 30.7082
rwrist 10.0303
rhand -12.7139 9.43145
rfingers 7.12502
rthumb 13.369 -20.1196
lclavicle 3.63776e-014 -2.18663e-014
lhumerus -32.8018 5.66593 80.17
lradius 42.7845
lwrist -5.30176
lhand -17.521 25.4713
lfingers 7.12502
lthumb 8.73264 55.2706
rfemur -29.3901 0.856751 15.2771
rtibia 24.5561
rfoot -10.5583 -1.44398
rtoes 2.10098
lfemur 19.2744 -3.99523 -32.527
ltibia -2.8625e-014
lfoot -3.80877 -6.72071
ltoes -1.58601
133
root 5.84998 17.7375 -2.39652 -7.51813 -47.1619 10.2239
lowerback 11.2654 -0.33352 -7.02406
upperback 1.25249 -1.34228 -0.050382
thorax -4.84884 -0.539061 4.11356
lowerneck -22.3727 -4.12603 -10.2292
upperneck 25.6087 -4.46755 7.27018
head 12.6479 -2.06454 3.73266
rclavicle 2.98177e-015 -5.56597e-015
rhumerus -38.7523 -17.2501 -75.8137
rradius 30.5618
rwrist 10.0916
rhand -12.7118 9.2309
rfingers 7.12502
rthumb 13.3709 -20.3201
lclavicle 2.98177e-015 -5.56597e-015
lhumerus -32.7616 5.79068 80.124
lradius 42.5955
lwrist -5.33913
lhand -17.382 25.7349
lfingers 7.12502
lthumb 8.86677 55.5286
rfemur -29.1172 0.61734 15.3061
rtibia 25.3175
rfoot -10.5441 -0.965975
rtoes 5.16226
lfemur 19.8744 -3.82654 -32.6908
ltibia 3.18055e-015
lfoot -3.3685 -6.97908
ltoes -1.719
134
root 5.73196 17.7445 -2.30052 -7.67508 -47.1639 10.4025
lowerback 11.1859 -0.326267 -7.11539
upperback 1.28727 -1.33837 -0.0869409
thorax -4.76711 -0.539958 4.12355
lowerneck -22.5295 -4.11695 -10.1849
upperneck 25.6715 -4.44827 7.24405
head 12.7005 -2.05276 3.71981
rclavicle 1.2921e-014 1.35174e-014
rhumerus -38.7169 -17.4538 -75.7266
rradius 30.2551
rwrist 10.328
rhand -12.6092 9.26006
rfingers 7.12502
rthumb 13.4698 -20.2844
lclavicle 1.2921e-014 1.35174e-014
lhumerus -32.8145 6.01664 80.1259
lradius 42.3772
lwrist -5.50661
lhand -17.0845 25.5775
lfingers 7.12502
lthumb 9.15384 55.3588
rfemur -28.8882 0.474172 15.2932
rtibia 25.9361
rfoot -10.0696 -0.476819
rtoes 5.98163
lfemur 20.4102 -3.80986 -32.7935
ltibia 3.81667e-014
lfoot -2.85713 -7.24559
ltoes -2.22814
135
root 5.61785 17.764 -2.21387 -7.43771 -47.0776 10.2344
lowerback 11.1923 -0.385807 -7.06081
upperback 1.19797 -1.40895 -0.00478752
thorax -4.85551 -0.568691 4.1912
lowerneck -22.5786 -4.06861 -10.2845
upperneck 25.7666 -4.37071 7.33589
head 12.7453 -2.01717 3.78951
rclavicle 4.07509e-015 1.98785e-015
rhumerus -38.7145 -17.631 -75.5331
rradius 29.8898
rwrist 10.6235
rhand -12.3704 9.24573
rfingers 7.12502
rthumb 13.7 -20.2833
lclavicle 4.07509e-015 1.98785e-015
lhumerus -33.0309 6.35012 80.156
lradius 42.1804
lwrist -5.76675
lhand -17.0075 25.427
lfingers 7.12502
lthumb 9.22815 55.205
rfemur -28.8273 0.700558 15.3716
rtibia 26.3297
rfoot -9.2063 -0.216587
rtoes 4.95468
lfemur 20.7203 -3.94782 -32.6098
ltibia -6.67916e-014
lfoot -2.23295 -7.62407
ltoes -2.77948
136
root 5.5043 17.7856 -2.12655 -7.04224 -46.9821 9.88248
lowerback 11.2043 -0.444221 -6.82302
upperback 1.08658 -1.45613 0.0771881
thorax -4.97772 -0.587618 4.1524
lowerneck -22.5558 -4.04982 -10.3916
upperneck 25.8171 -4.34876 7.46043
head 12.7647 -2.00331 3.86245
rclavicle 8.94531e-016 -7.15625e-015
rhumerus -38.7652 -17.9434 -75.3297
rradius 29.5433
rwrist 10.895
rhand -12.3517 9.27822
rfingers 7.12502
rthumb 13.7181 -20.2496
lclavicle 8.94531e-016 -7.15625e-015
lhumerus -33.2772 6.70012 80.16
lradius 42.0024
lwrist -5.93898
lhand -16.9484 25.7384
lfingers 7.12502
lthumb 9.28517 55.5139
rfemur -28.7427 0.834903 15.5827
rtibia 26.5163
rfoot -8.4386 0.150026
rtoes 4.73227
lfemur 20.9726 -4.11718 -32.283
ltibia 6.36111e-014
lfoot -1.37741 -8.04494
ltoes -3.15142
137
root 5.38536 17.8074 -2.03094 -6.58395 -46.9902 9.31908
lowerback 11.1678 -0.469969 -6.40655
upperback 1.04658 -1.42997 0.188102
thorax -5.00962 -0.579575 4.03016
lowerneck -22.5676 -4.05207 -10.2978
upperneck 25.8235 -4.3349 7.297
head 12.7615 -2.00925 3.78442
rclavicle 5.61567e-014 -3.97569e-015
rhumerus -38.8554 -18.0576 -75.2236
rradius 29.3247
rwrist 10.9172
rhand -13.0923 9.16808
rfingers 7.12502
rthumb 13.0042 -20.4066
lclavicle 5.61567e-014 -3.97569e-015
lhumerus -33.486 7.04512 80.186
lradius 41.7507
lwrist -5.93123
lhand -17.1861 25.7567
lfingers 7.12502
lthumb 9.05581 55.5423
rfemur -28.4255 0.842601 15.9978
rtibia 26.5139
rfoot -8.01853 0.593857
rtoes 4.91237
lfemur 21.3507 -4.18148 -31.7917
ltibia 3.18055e-014
lfoot -0.205148 -8.38263
ltoes -2.61124
138
root 5.26505 17.8298 -1.92894 -6.03111 -47.1184 8.60071
lowerback 11.079 -0.48987 -5.82461
upperback 1.0293 -1.3708 0.315963
thorax -4.99495 -0.560946 3.82557
lowerneck -22.5655 -4.04487 -10.2529
upperneck 25.8165 -4.32059 7.23117
head 12.7538 -2.00707 3.7531
rclavicle 3.88624e-014 -2.14687e-014
rhumerus -38.9125 -18.1213 -75.1545
rradius 29.1051
rwrist 11.0148
rhand -13.5366 9.00498
rfingers 7.12502
rthumb 12.5759 -20.5965
lclavicle 3.88624e-014 -2.14687e-014
lhumerus -33.7017 7.23249 80.2574
lradius 41.4581
lwrist -5.58861
lhand -17.8075 25.6899
lfingers 7.12502
lthumb 8.45609 55.5006
rfemur -28.039 0.842109 16.548
rtibia 26.4552
rfoot -7.66171 1.00303
rtoes 3.59982
lfemur 21.7755 -4.13089 -31.195
ltibia 3.81667e-014
lfoot 1.01581 -8.62295
ltoes -1.84401
139
root 5.14443 17.8505 -1.82469 -5.46275 -47.2738 7.81552
lowerback 11.0141 -0.474895 -5.16277
upperback 1.00763 -1.25797 0.452521
thorax -5.00424 -0.516677 3.57754
lowerneck -22.4643 -4.05956 -10.3244
upperneck 25.7979 -4.36078 7.34187
head 12.7351 -2.01915 3.80138
rclavicle 7.92157e-014 -6.36111e-015
rhumerus -39.0166 -18.559 -74.8908
rradius 28.8047
rwrist 11.4151
rhand -13.0717 9.10758
rfingers 7.12502
rthumb 13.024 -20.4658
lclavicle 7.92157e-014 -6.36111e-015
lhumerus -33.9263 7.4104 80.3367
lradius 41.1008
lwrist -5.55626
lhand -17.9682 25.2573
lfingers 7.12502
lthumb 8.30102 55.0742
rfemur -27.5731 0.876986 17.1399
rtibia 26.3988
rfoot -7.1871 1.38278
rtoes 2.95505
lfemur 20.1478 -4.09013 -30.5982
ltibia 4.11812
lfoot 0.136812 -8.70351
ltoes -3.99393
140
root 5.02176 17.8691 -1.71814 -4.94179 -47.4461 7.22112
lowerback 10.8166 -0.459576 -4.65751
upperback 0.966579 -1.1599 0.556694
thorax -4.95431 -0.478024 3.38323
lowerneck -22.3985 -4.03278 -10.2417
upperneck 25.7429 -4.33864 7.28207
head 12.6933 -2.00937 3.76618
rclavicle -7.65321e-015 -7.15625e-015
rhumerus -39.1522 -18.8893 -74.6825
rradius 28.5861
rwrist 11.7744
rhand -12.9282 9.11586
rfingers 7.12502
rthumb 13.1624 -20.4487
lclavicle -7.65321e-015 -7.15625e-015
lhumerus -34.1527 7.79058 80.2839
lradius 40.7093
lwrist -5.91539
lhand -17.3309 25.038
lfingers 7.12502
lthumb 8.91607 54.8296
rfemur -27.182 0.716479 17.6783
rtibia 26.3926
rfoot -6.52085 1.80349
rtoes 2.4056
lfemur 18.4066 -4.0299 -30.1478
ltibia 8.26108
lfoot -0.63631 -8.84721
ltoes -9.44738
